<svg width="763" height="763" viewBox="0 0 763 763" fill="none" xmlns="http://www.w3.org/2000/svg">
<path d="M544.7 127H218.3C167.877 127 127 167.877 127 218.3V544.7C127 595.123 167.877 636 218.3 636H544.7C595.123 636 636 595.123 636 544.7V218.3C636 167.877 595.123 127 544.7 127Z" fill="#E2DEDE"/>
<g opacity="0.17">
<path d="M408.103 302.058L507.034 202.326C507.035 210.662 507.1 218.491 507.161 225.862C507.345 248.263 507.495 266.436 505.716 281.797C503.347 302.245 497.558 317.7 483.884 331.501L453.496 362.167C450.267 349.821 443.82 338.229 434.313 328.501L434.313 328.5L408.103 302.058ZM421.175 341.881L394.965 315.302L407.997 302.166L434.205 328.608C443.715 338.34 450.156 349.94 453.371 362.292L437.416 378.392C436.643 365.054 431.303 351.981 421.175 341.881ZM370.929 445.49C389.161 417.644 386.187 378.245 361.926 327.339C374.547 333.565 385.966 340.375 395.269 347.23C404.62 354.122 411.828 361.056 415.967 367.484L415.977 367.479C421.525 380.946 418.814 397.151 407.95 408.133C407.944 408.139 407.938 408.145 407.931 408.151L370.929 445.49ZM395.356 347.105C386.006 340.215 374.525 333.373 361.835 327.125C361.831 327.123 361.826 327.12 361.82 327.117C355.508 314.005 347.876 300.175 338.833 285.506L407.931 355.24H407.931C410.32 357.63 412.314 360.275 413.914 363.091C414.572 364.276 415.156 365.493 415.665 366.732C411.441 360.471 404.392 353.764 395.356 347.105ZM338.359 285.028C347.51 299.835 355.225 313.787 361.6 327.009C330.91 312.056 293.091 300.479 261.187 299.97C259.586 294.348 258.481 288.326 257.725 281.795C255.946 266.438 256.096 248.272 256.281 225.881C256.342 218.504 256.408 210.668 256.408 202.323L338.359 285.028ZM367.161 415.213C359.907 404.089 346.891 392.518 329.232 381.637L279.559 331.499C271.639 323.507 266.364 314.961 262.866 305.211C262.278 303.552 261.743 301.857 261.258 300.123C293.178 300.649 331.021 312.254 361.706 327.231C385.76 377.628 388.939 416.703 371.414 444.456C375.71 435.73 373.975 425.663 367.161 415.213ZM279.547 431.764L279.554 431.757L304.21 406.94C305.543 426.972 304.181 446.868 300.246 466.274C287.419 466.891 274.46 465.898 261.75 463.417C265.343 451.328 270.907 440.485 279.547 431.764ZM261.638 463.55C274.373 466.043 287.36 467.042 300.214 466.428C293.17 500.704 278.349 533.228 256.403 561.034C256.399 554.67 256.211 547.879 256.016 540.831C255.591 525.488 255.133 508.932 256.465 492.927C257.311 482.756 258.88 472.814 261.638 463.55H261.638ZM345.188 457.659C353.704 454.658 362.004 450.912 369.986 446.441L257.206 560.258C278.799 532.615 293.398 500.376 300.371 466.421C311.041 465.925 321.643 464.33 332.009 461.667C336.449 460.526 340.847 459.189 345.188 457.659ZM351.006 455.316C345.884 457.353 340.673 459.115 335.396 460.598C323.975 463.808 312.239 465.711 300.415 466.266C304.358 446.814 305.717 426.865 304.366 406.783L304.368 406.781C312.252 407.322 319.431 408.22 325.904 409.476C336.733 411.575 345.588 414.675 352.469 418.773C363.461 425.319 369.421 434.41 370.358 446.052C364.088 449.593 357.622 452.684 351.006 455.316ZM329.337 410.033C322.03 408.409 313.754 407.278 304.51 406.639L329.185 381.805C330.15 382.779 331.102 383.74 332.04 384.687C332.042 384.689 332.043 384.691 332.046 384.692C346.174 398.963 357.057 410.117 363.825 419.611C370.952 429.609 373.501 437.746 370.495 445.733C369.469 434.183 363.483 425.152 352.549 418.641C346.384 414.971 338.647 412.103 329.337 410.033ZM367.033 415.296C374.04 426.04 375.642 436.342 370.866 445.185C373.552 437.319 370.918 429.285 363.955 419.523C359.662 413.504 353.719 406.82 346.35 399.105C342.786 395.372 338.887 391.397 334.68 387.14C334.64 387.099 334.6 387.058 334.559 387.017C332.979 385.418 331.355 383.779 329.69 382.098C347.065 392.876 359.87 404.311 367.033 415.296ZM394.965 447.964L421.175 421.514C422.367 420.325 423.493 419.093 424.552 417.823C432.495 408.305 436.734 396.667 437.428 385.009L439.689 387.283L453.384 401.103C450.157 413.454 443.727 425.056 434.205 434.662L407.99 461.108L394.965 447.964ZM434.313 434.77C443.84 425.159 450.277 413.555 453.515 401.2L483.884 431.765L484.252 432.139C497.681 445.878 503.377 461.333 505.716 481.767C507.478 497.166 507.333 515.386 507.155 537.823C507.097 545.11 507.035 552.842 507.034 561.067L408.097 461.217L434.313 434.77Z" fill="#7A7878"/>
<path d="M279.559 331.499L329.232 381.637C346.891 392.518 359.907 404.089 367.161 415.213C373.975 425.663 375.71 435.73 371.414 444.456C388.939 416.703 385.76 377.628 361.706 327.231C331.021 312.254 293.178 300.649 261.258 300.123C261.743 301.857 262.278 303.552 262.866 305.211C266.364 314.961 271.639 323.507 279.559 331.499ZM279.559 331.499L279.552 331.506M408.103 302.058L507.034 202.326C507.035 210.662 507.1 218.491 507.161 225.862C507.345 248.263 507.495 266.436 505.716 281.797C503.347 302.245 497.558 317.7 483.884 331.501L453.496 362.167C450.267 349.821 443.82 338.229 434.313 328.501L434.313 328.5L408.103 302.058ZM421.175 341.881L394.965 315.302L407.997 302.166L434.205 328.608C443.715 338.34 450.156 349.94 453.371 362.292L437.416 378.392C436.643 365.054 431.303 351.981 421.175 341.881ZM370.929 445.49C389.161 417.644 386.187 378.245 361.926 327.339C374.547 333.565 385.966 340.375 395.269 347.23C404.62 354.122 411.828 361.056 415.967 367.484L415.977 367.479C421.525 380.946 418.814 397.151 407.95 408.133C407.944 408.139 407.938 408.145 407.931 408.151L370.929 445.49ZM395.356 347.105C386.006 340.215 374.525 333.373 361.835 327.125C361.831 327.123 361.826 327.12 361.82 327.117C355.508 314.005 347.876 300.175 338.833 285.506L407.931 355.24H407.931C410.32 357.63 412.314 360.275 413.914 363.091C414.572 364.276 415.156 365.493 415.665 366.732C411.441 360.471 404.392 353.764 395.356 347.105ZM338.359 285.028C347.51 299.835 355.225 313.787 361.6 327.009C330.91 312.056 293.091 300.479 261.187 299.97C259.586 294.348 258.481 288.326 257.725 281.795C255.946 266.438 256.096 248.272 256.281 225.881C256.342 218.504 256.408 210.668 256.408 202.323L338.359 285.028ZM279.547 431.764L279.554 431.757L304.21 406.94C305.543 426.972 304.181 446.868 300.246 466.274C287.419 466.891 274.46 465.898 261.75 463.417C265.343 451.328 270.907 440.485 279.547 431.764ZM261.638 463.55C274.373 466.043 287.36 467.042 300.214 466.428C293.17 500.704 278.349 533.228 256.403 561.034C256.399 554.67 256.211 547.879 256.016 540.831C255.591 525.488 255.133 508.932 256.465 492.927C257.311 482.756 258.88 472.814 261.638 463.55H261.638ZM345.188 457.659C353.704 454.658 362.004 450.912 369.986 446.441L257.206 560.258C278.799 532.615 293.398 500.376 300.371 466.421C311.041 465.925 321.643 464.33 332.009 461.667C336.449 460.526 340.847 459.189 345.188 457.659ZM351.006 455.316C345.884 457.353 340.673 459.115 335.396 460.598C323.975 463.808 312.239 465.711 300.415 466.266C304.358 446.814 305.717 426.865 304.366 406.783L304.368 406.781C312.252 407.322 319.431 408.22 325.904 409.476C336.733 411.575 345.588 414.675 352.469 418.773C363.461 425.319 369.421 434.41 370.358 446.052C364.088 449.593 357.622 452.684 351.006 455.316ZM329.337 410.033C322.03 408.409 313.754 407.278 304.51 406.639L329.185 381.805C330.15 382.779 331.102 383.74 332.04 384.687C332.042 384.689 332.043 384.691 332.046 384.692C346.174 398.963 357.057 410.117 363.825 419.611C370.952 429.609 373.501 437.746 370.495 445.733C369.469 434.183 363.483 425.152 352.549 418.641C346.384 414.971 338.647 412.103 329.337 410.033ZM367.033 415.296C374.04 426.04 375.642 436.342 370.866 445.185C373.552 437.319 370.918 429.285 363.955 419.523C359.662 413.504 353.719 406.82 346.35 399.105C342.786 395.372 338.887 391.397 334.68 387.14C334.64 387.099 334.6 387.058 334.559 387.017C332.979 385.418 331.355 383.779 329.69 382.098C347.065 392.876 359.87 404.311 367.033 415.296ZM394.965 447.964L421.175 421.514C422.367 420.325 423.493 419.093 424.552 417.823C432.495 408.305 436.734 396.667 437.428 385.009L439.689 387.283L453.384 401.103C450.157 413.454 443.727 425.056 434.205 434.662L407.99 461.108L394.965 447.964ZM434.313 434.77C443.84 425.159 450.277 413.555 453.515 401.2L483.884 431.765L484.252 432.139C497.681 445.878 503.377 461.333 505.716 481.767C507.478 497.166 507.333 515.386 507.155 537.823C507.097 545.11 507.035 552.842 507.034 561.067L408.097 461.217L434.313 434.77Z" stroke="black" stroke-width="0.2"/>
</g>
</svg>
