<svg width="763" height="763" viewBox="0 0 763 763" fill="none" xmlns="http://www.w3.org/2000/svg">
<g clip-path="url(#clip0_65_14)">
<path d="M548.368 120H213.632C161.921 120 120 161.921 120 213.632V548.368C120 600.079 161.921 642 213.632 642H548.368C600.079 642 642 600.079 642 548.368V213.632C642 161.921 600.079 120 548.368 120Z" fill="#E2DEDE"/>
<path d="M242.568 559.877C242.568 483.207 304.721 421.054 381.391 421.054C458.06 421.054 520.213 483.207 520.213 559.877M460.718 282.232C460.718 326.043 425.202 361.559 381.391 361.559C337.58 361.559 302.063 326.043 302.063 282.232C302.063 238.421 337.58 202.904 381.391 202.904C425.202 202.904 460.718 238.421 460.718 282.232Z" stroke="#9B9B9B" stroke-width="15" stroke-linecap="round" stroke-linejoin="round"/>
</g>
<defs>
<clipPath id="clip0_65_14">
<rect width="763" height="763" fill="white"/>
</clipPath>
</defs>
</svg>
